<svg width="178" height="40" viewBox="0 0 178 40" fill="none" xmlns="http://www.w3.org/2000/svg">
<path d="M86.2773 19.9229V35.7001H70.4864L86.2773 19.9229Z" fill="#DF9E9E"/>
<path d="M116.714 28.2817C115.227 34.7317 111.505 38.9044 105.218 38.9044C97.4864 38.9044 93.5182 32.1681 93.5182 25.7181V20.1135C93.5182 19.1453 92.9182 18.8317 90.6273 18.8317V17.4681L97.0364 17.1817V25.7181C97.0364 34.9771 101.168 37.5408 105.218 37.5408C109.268 37.5408 113.4 34.9771 113.4 25.7181V17.9862C113.4 17.0999 113.359 16.8272 111.559 16.2272L116.932 15.2317V24.2453C116.932 26.809 118.5 30.5317 121.255 30.5317H124.105C126.232 30.5317 127.105 29.1272 127.105 26.809V16.7453C127.105 15.859 126.941 15.709 125.345 15.1362L130.636 14.1408V24.3544C130.636 26.8771 132.355 30.5317 135.123 30.5317H136.282V32.0181H135.805C133.759 32.0181 132 30.7772 130.759 28.8953C129.791 31.2953 127.35 32.0181 124.827 32.0181H122.059C119.536 32.0181 117.327 29.809 116.727 28.2953L116.714 28.2817ZM106.936 13.1726C106.936 14.3726 105.968 15.259 104.85 15.259C103.732 15.259 102.764 14.3726 102.764 13.1726C102.764 11.9726 103.732 11.0862 104.85 11.0862C105.968 11.0862 106.936 12.0135 106.936 13.1726ZM124.173 37.7044C124.173 38.8226 123.327 39.7499 122.127 39.7499C120.927 39.7499 120.082 38.8226 120.082 37.7044C120.082 36.5862 120.927 35.6999 122.127 35.6999C123.327 35.6999 124.173 36.5862 124.173 37.7044ZM129.941 37.7044C129.941 38.8226 129.095 39.7499 127.936 39.7499C126.777 39.7499 125.891 38.8226 125.891 37.7044C125.891 36.5862 126.736 35.6999 127.936 35.6999C129.136 35.6999 129.941 36.5862 129.941 37.7044ZM142.091 30.5317C142.445 30.5317 144.941 30.3271 145.977 29.6862C144.818 28.3635 144.055 27.1635 141.927 22.8681C141.245 21.5862 139.841 19.7862 139.2 18.9408C138.873 18.5044 138.477 17.9453 138.355 17.8226C138.477 17.7408 138.6 17.6181 138.873 17.4681C141.995 15.6272 145.2 14.4681 147.968 14.4681C152.891 14.4681 156.464 17.0726 156.464 21.559C156.464 25.4862 152.455 27.9681 148.964 29.8499C149.482 30.2862 150.041 30.5317 151.323 30.5317H161.659V32.0181H151.882C148.923 32.0181 147.955 31.4181 147.355 31.0226C147.355 31.0226 147.314 31.0226 147.314 30.9817C146.114 31.6226 145.105 32.0181 143.032 32.0181H135.505V30.5317H142.077H142.091ZM141.491 18.0272C142.895 19.7044 143.891 21.5181 144.695 23.2772C145.541 24.9544 146.741 27.3272 147.777 28.4862C150.627 26.7272 152.509 25.1999 152.509 21.3953C152.509 18.3544 150.982 16.1453 148.023 16.1453C145.855 16.1453 143.577 16.8681 141.491 18.0272ZM160.964 30.5317H161.85C164.1 30.5317 165.014 29.0453 165.014 26.6862V9.17715C165.014 8.24988 165.014 7.97715 163.255 7.41806L168.545 6.42261V26.8226C168.545 30.1908 166.105 32.0317 162.695 32.0317H160.977V30.5453L160.964 30.5317ZM173.864 9.17715C173.864 8.24988 173.823 7.97715 172.145 7.41806L177.395 6.42261V32.0317H173.864V9.19079V9.17715Z" fill="#162731"/>
<path d="M10.0773 14.4818C8.56363 14.4545 7.32273 14.1955 7.32273 12.1636C6.99545 13.1182 5.98636 14.4818 4.09091 14.4818C1.75909 14.4818 0 12.0818 0 9.31364C0 6.75 1.75909 4.24091 4.56818 4.24091C5.83636 4.24091 6.68182 4.8 7.2 5.12728C7.44545 5.27728 7.58182 5.37273 7.58182 5.37273C7.62273 5.37273 7.73182 5.08637 7.82727 4.81364C7.86818 4.71818 7.82727 4.63636 7.97727 4.48636H9.09546C8.95909 5.05909 8.94546 5.64546 8.94546 6.1091V11.8773C8.94546 12.4773 9.05454 13.5682 10.1045 13.6636H12.6V14.4818H10.1045H10.0773ZM2.01818 9.45C2.01818 12.7227 3.43636 13.7182 4.37727 13.7182C5.46818 13.7182 6.42273 12.9 6.77727 11.7136C6.98182 11.0455 7.02273 10.2 7.02273 9.01364C7.02273 7.11818 6.77727 5.00455 4.55455 5.00455C2.82273 5.00455 2.01818 7.14546 2.01818 9.43637V9.45ZM4.44545 1.5C4.44545 2.12728 3.95455 2.63182 3.31364 2.63182C2.61818 2.63182 2.18182 2.11364 2.18182 1.5C2.18182 0.886367 2.63182 0.368182 3.31364 0.368182C3.95455 0.368182 4.44545 0.886367 4.44545 1.5ZM7.65 1.5C7.65 2.12728 7.18636 2.63182 6.51818 2.63182C5.85 2.63182 5.38636 2.11364 5.38636 1.5C5.38636 0.886367 5.85 0.368182 6.51818 0.368182C7.18636 0.368182 7.65 0.886367 7.65 1.5ZM13.8682 17.6455C13.8682 18.2727 13.3773 18.7773 12.7364 18.7773C12.0409 18.7773 11.6045 18.2591 11.6045 17.6455C11.6045 17.0318 12.0545 16.5273 12.7364 16.5273C13.3773 16.5273 13.8682 17.0182 13.8682 17.6455ZM19.6773 14.4818C18.5455 14.4818 17.5909 13.7864 16.8955 12.75C16.3636 14.0864 14.9864 14.4818 13.5955 14.4818H12.1773V13.6636H13.2C14.3864 13.6636 14.8636 12.8864 14.8636 11.5909V6C14.8636 5.50909 14.7682 5.42727 13.8818 5.11364L16.8273 4.55455V10.2273C16.8273 11.6318 17.7682 13.65 19.3227 13.65H20.5636V14.4682H19.6773V14.4818ZM17.0727 17.6455C17.0727 18.2727 16.6091 18.7773 15.9409 18.7773C15.2727 18.7773 14.8091 18.2591 14.8091 17.6455C14.8091 17.0318 15.2727 16.5273 15.9409 16.5273C16.6091 16.5273 17.0727 17.0182 17.0727 17.6455ZM31.2136 12.9955C30.5727 14.3591 29.1818 15.45 27.0273 15.45C24.9955 15.45 24.0682 14.4 23.4 13.5545C22.8818 14.1136 22.2409 14.4955 21.0682 14.4955H20.1818V13.6773H21.0955C21.3 13.6364 21.6682 13.5682 21.9409 13.35C22.6091 12.7091 22.9636 11.3727 23.25 10.2545C23.7818 8.18182 24.3409 6.13636 27.6136 6.13636C30.3136 6.13636 31.7591 8.85 31.7591 10.8955C31.7591 11.1818 31.7318 11.4545 31.6909 11.7C32.0727 12.75 32.85 13.6773 33.8455 13.6773H34.7864V14.4955H34.2955C32.8227 14.4955 31.9773 13.9773 31.2273 13.0091L31.2136 12.9955ZM27.2045 6.83182C25.7864 6.83182 25.3364 8.44091 24.8864 10.1727L24.8455 10.3091C24.6409 11.0727 24.45 11.8909 24.0273 12.6955C24.0682 12.7227 24.1227 12.7909 24.1364 12.8318C24.7091 13.5409 25.7182 14.6864 27.0955 14.6864C28.4727 14.6864 29.7 13.0364 29.7 11.0182C29.7 9 28.9227 6.92728 27.3 6.85909H27.2045V6.83182ZM36.0682 17.6591C36.0682 18.2864 35.5773 18.7909 34.9364 18.7909C34.2409 18.7909 33.8045 18.2727 33.8045 17.6591C33.8045 17.0455 34.2545 16.5409 34.9364 16.5409C35.5773 16.5409 36.0682 17.0318 36.0682 17.6591ZM41.8773 14.4955C40.7455 14.4955 39.7909 13.8 39.0955 12.7636C38.5636 14.1 37.1864 14.4955 35.7955 14.4955H34.3773V13.6773H35.4C36.5864 13.6773 37.0636 12.9 37.0636 11.6045V6.01364C37.0636 5.52273 36.9682 5.44091 36.0818 5.12728L39.0273 4.56818V10.2409C39.0273 11.6455 39.9682 13.6636 41.5227 13.6636H42.7636V14.4818H41.8773V14.4955ZM39.2727 17.6591C39.2727 18.2864 38.8091 18.7909 38.1409 18.7909C37.4727 18.7909 37.0091 18.2727 37.0091 17.6591C37.0091 17.0455 37.4727 16.5409 38.1409 16.5409C38.8091 16.5409 39.2727 17.0318 39.2727 17.6591ZM50.1136 14.4955C48.9818 14.4955 48 13.8 47.3045 12.7636C46.7727 14.1 45.4091 14.4955 44.0045 14.4955H42.3545V13.6773H43.5955C44.7818 13.6773 45.2591 12.9 45.2591 11.6045V1.67728C45.2591 1.18637 45.1636 1.10455 44.2773 0.790912L47.1955 0.231821V10.2545C47.1955 11.6591 48.1773 13.6773 49.7045 13.6773H50.5773V14.4955H50.0864H50.1136ZM53.8364 13.6773C54.0409 13.6773 55.4182 13.5682 55.9909 13.2136C55.35 12.4773 54.9273 11.8091 53.7409 9.42273C53.3591 8.71364 52.5818 7.70455 52.2273 7.24091C52.05 6.99546 51.8318 6.68182 51.7636 6.61364C51.8318 6.57273 51.9 6.50455 52.05 6.40909C53.7818 5.38636 55.5682 4.74546 57.1091 4.74546C59.85 4.74546 61.8273 6.19091 61.8273 8.68637C61.8273 10.8682 59.6045 12.2455 57.6682 13.2955C57.9545 13.5409 58.2682 13.6773 58.9773 13.6773H64.7182V14.4955H59.2909C57.6409 14.4955 57.1091 14.1682 56.7818 13.9364C56.7818 13.9364 56.7545 13.9364 56.7545 13.9091C56.0864 14.2636 55.5273 14.4818 54.3682 14.4818H50.1818V13.6636H53.8364V13.6773ZM53.5091 6.73637C54.2864 7.67728 54.8455 8.67273 55.2955 9.65455C55.7591 10.5955 56.4273 11.9045 57.0136 12.5455C58.5954 11.5636 59.6454 10.7182 59.6454 8.60455C59.6454 6.91364 58.8 5.68637 57.15 5.68637C55.95 5.68637 54.6818 6.08182 53.5227 6.73637H53.5091ZM72.45 14.5091C71.3182 14.5091 70.3636 13.8136 69.6409 12.7773C69.1091 14.1136 67.7455 14.5091 66.3409 14.5091H64.3091V13.6909H65.9591C67.1182 13.6909 67.6227 12.9136 67.6227 11.6182V6.02727C67.6227 5.53637 67.5273 5.45455 66.6273 5.14091L69.5864 4.58182V10.2545C69.5864 11.6591 70.5273 13.6773 72.0545 13.6773H73.3227V14.4955H72.4364L72.45 14.5091ZM67.6364 1.13182C67.6364 1.75909 67.1454 2.26364 66.5045 2.26364C65.8091 2.26364 65.3727 1.74546 65.3727 1.13182C65.3727 0.518184 65.8227 0 66.5045 0C67.1454 0 67.6364 0.490912 67.6364 1.13182ZM70.8409 1.13182C70.8409 1.75909 70.3773 2.26364 69.7091 2.26364C69.0409 2.26364 68.5773 1.74546 68.5773 1.13182C68.5773 0.518184 69.0409 0 69.7091 0C70.3773 0 70.8409 0.490912 70.8409 1.13182ZM72.9273 13.6909H73.4182C74.6591 13.6909 75.1773 12.8727 75.1773 11.55V1.81364C75.1773 1.29546 75.1773 1.14546 74.1955 0.831819L77.1409 0.272728V11.6045C77.1409 13.4727 75.7773 14.4955 73.8955 14.4955H72.9409V13.6773L72.9273 13.6909ZM80.1 1.82727C80.1 1.30909 80.0727 1.15909 79.1454 0.845458L82.0636 0.286368V14.5091H80.1V1.81364V1.82727Z" fill="#DF9E9E"/>
</svg>
