<svg width="212" height="48" viewBox="0 0 212 48" fill="none" xmlns="http://www.w3.org/2000/svg">
<path d="M102.795 23.7371V42.5348H83.9807L102.795 23.7371Z" fill="white"/>
<path d="M139.058 33.696C137.287 41.3809 132.852 46.3524 125.362 46.3524C116.15 46.3524 111.422 38.3264 111.422 30.6416V23.9641C111.422 22.8105 110.707 22.4369 107.978 22.4369V20.8122L115.614 20.471V30.6416C115.614 41.6733 120.536 44.7277 125.362 44.7277C130.187 44.7277 135.11 41.6733 135.11 30.6416V21.4296C135.11 20.3735 135.061 20.0486 132.917 19.3337L139.318 18.1477V28.8869C139.318 31.9414 141.186 36.3768 144.468 36.3768H147.864C150.398 36.3768 151.438 34.7034 151.438 31.9414V19.9511C151.438 18.895 151.243 18.7163 149.342 18.0339L155.646 16.8479V29.0169C155.646 32.0226 157.693 36.3768 160.991 36.3768H162.372V38.1477H161.804C159.367 38.1477 157.271 36.6692 155.792 34.4272C154.639 37.2866 151.731 38.1477 148.725 38.1477H145.427C142.421 38.1477 139.789 35.5157 139.074 33.7123L139.058 33.696ZM127.409 15.6944C127.409 17.1241 126.255 18.1802 124.923 18.1802C123.591 18.1802 122.437 17.1241 122.437 15.6944C122.437 14.2646 123.591 13.2086 124.923 13.2086C126.255 13.2086 127.409 14.3134 127.409 15.6944ZM147.945 44.9227C147.945 46.255 146.938 47.3598 145.508 47.3598C144.078 47.3598 143.071 46.255 143.071 44.9227C143.071 43.5905 144.078 42.5344 145.508 42.5344C146.938 42.5344 147.945 43.5905 147.945 44.9227ZM154.818 44.9227C154.818 46.255 153.81 47.3598 152.429 47.3598C151.048 47.3598 149.992 46.255 149.992 44.9227C149.992 43.5905 151 42.5344 152.429 42.5344C153.859 42.5344 154.818 43.5905 154.818 44.9227ZM169.294 36.3768C169.716 36.3768 172.689 36.1331 173.924 35.3695C172.543 33.7935 171.633 32.3638 169.099 27.246C168.286 25.7188 166.613 23.5742 165.849 22.5668C165.459 22.0469 164.988 21.3808 164.842 21.2346C164.988 21.1371 165.134 20.9909 165.459 20.8122C169.18 18.6188 172.998 17.2378 176.296 17.2378C182.161 17.2378 186.418 20.341 186.418 25.6863C186.418 30.3654 181.641 33.3224 177.482 35.5644C178.1 36.0843 178.766 36.3768 180.293 36.3768H192.608V38.1477H180.959C177.433 38.1477 176.28 37.4328 175.565 36.9617C175.565 36.9617 175.516 36.9617 175.516 36.9129C174.087 37.6765 172.884 38.1477 170.415 38.1477H161.446V36.3768H169.277H169.294ZM168.579 21.4783C170.252 23.4767 171.438 25.6375 172.397 27.7334C173.404 29.7318 174.834 32.5587 176.069 33.9397C179.464 31.8439 181.706 30.0242 181.706 25.4913C181.706 21.8682 179.887 19.2362 176.361 19.2362C173.778 19.2362 171.065 20.0973 168.579 21.4783ZM191.78 36.3768H192.836C195.516 36.3768 196.605 34.6059 196.605 31.7951V10.934C196.605 9.8292 196.605 9.50426 194.509 8.83813L200.813 7.6521V31.9576C200.813 35.9706 197.905 38.164 193.843 38.164H191.796V36.393L191.78 36.3768ZM207.149 10.934C207.149 9.8292 207.1 9.50426 205.102 8.83813L211.357 7.6521V38.164H207.149V10.9502V10.934Z" fill="white"/>
<path d="M12.0065 17.2543C10.2031 17.2218 8.72464 16.9131 8.72464 14.4923C8.33471 15.6296 7.13243 17.2543 4.8741 17.2543C2.09586 17.2543 0 14.3948 0 11.0967C0 8.04227 2.09586 5.05282 5.44274 5.05282C6.95372 5.05282 7.96103 5.71895 8.57841 6.10887C8.87086 6.28759 9.03333 6.40132 9.03333 6.40132C9.08207 6.40132 9.21205 6.06013 9.32578 5.73519C9.37452 5.62147 9.32577 5.52398 9.50449 5.34526H10.8368C10.6743 6.02764 10.658 6.72626 10.658 7.27866V14.1511C10.658 14.866 10.788 16.1658 12.039 16.2795H15.0122V17.2543H12.039H12.0065ZM2.40455 11.2592C2.40455 15.1584 4.09424 16.3445 5.21529 16.3445C6.51505 16.3445 7.65234 15.3697 8.07476 13.9562C8.31846 13.1601 8.3672 12.1528 8.3672 10.7393C8.3672 8.48093 8.07476 5.96265 5.4265 5.96265C3.36313 5.96265 2.40455 8.51343 2.40455 11.2429V11.2592ZM5.29652 1.78717C5.29652 2.53454 4.71163 3.13567 3.94802 3.13567C3.11942 3.13567 2.59952 2.51829 2.59952 1.78717C2.59952 1.05606 3.13567 0.43867 3.94802 0.43867C4.71163 0.43867 5.29652 1.05606 5.29652 1.78717ZM9.11457 1.78717C9.11457 2.53454 8.56217 3.13567 7.76607 3.13567C6.96996 3.13567 6.41757 2.51829 6.41757 1.78717C6.41757 1.05606 6.96996 0.43867 7.76607 0.43867C8.56217 0.43867 9.11457 1.05606 9.11457 1.78717ZM16.5232 21.0236C16.5232 21.771 15.9383 22.3721 15.1747 22.3721C14.3461 22.3721 13.8262 21.7547 13.8262 21.0236C13.8262 20.2925 14.3623 19.6914 15.1747 19.6914C15.9383 19.6914 16.5232 20.2763 16.5232 21.0236ZM23.4444 17.2543C22.0959 17.2543 20.9586 16.4257 20.13 15.1909C19.4964 16.7832 17.8555 17.2543 16.1983 17.2543H14.5086V16.2795H15.7271C17.1406 16.2795 17.7092 15.3534 17.7092 13.8099V7.14868C17.7092 6.56379 17.5955 6.4663 16.5394 6.09262L20.0488 5.4265V12.1852C20.0488 13.8587 21.1698 16.2632 23.022 16.2632H24.5005V17.2381H23.4444V17.2543ZM20.3412 21.0236C20.3412 21.771 19.7888 22.3721 18.9927 22.3721C18.1966 22.3721 17.6442 21.7547 17.6442 21.0236C17.6442 20.2925 18.1966 19.6914 18.9927 19.6914C19.7888 19.6914 20.3412 20.2763 20.3412 21.0236ZM37.1894 15.4834C36.4258 17.1081 34.7686 18.4079 32.2015 18.4079C29.7807 18.4079 28.6759 17.1568 27.8798 16.1495C27.2625 16.8156 26.4989 17.2706 25.1016 17.2706H24.0456V16.2957H25.1341C25.3778 16.247 25.8165 16.1658 26.1414 15.9058C26.9375 15.1422 27.3599 13.55 27.7011 12.2177C28.3348 9.7482 29.0009 7.31115 32.9002 7.31115C36.1171 7.31115 37.8393 10.5443 37.8393 12.9814C37.8393 13.3225 37.8068 13.6475 37.758 13.9399C38.2129 15.1909 39.139 16.2957 40.325 16.2957H41.4461V17.2706H40.8612C39.1065 17.2706 38.0992 16.6532 37.2056 15.4996L37.1894 15.4834ZM32.4128 8.13975C30.7231 8.13975 30.1869 10.0569 29.6508 12.1203L29.602 12.2827C29.3583 13.1926 29.1309 14.1674 28.6272 15.126C28.6759 15.1585 28.7409 15.2397 28.7572 15.2884C29.4396 16.1333 30.6418 17.498 32.2828 17.498C33.9237 17.498 35.386 15.5321 35.386 13.1276C35.386 10.723 34.4599 8.25348 32.5265 8.17224H32.4128V8.13975ZM42.9733 21.0399C42.9733 21.7872 42.3884 22.3884 41.6248 22.3884C40.7962 22.3884 40.2763 21.771 40.2763 21.0399C40.2763 20.3087 40.8125 19.7076 41.6248 19.7076C42.3884 19.7076 42.9733 20.2925 42.9733 21.0399ZM49.8945 17.2706C48.546 17.2706 47.4087 16.442 46.5801 15.2072C45.9465 16.7994 44.3056 17.2706 42.6484 17.2706H40.9587V16.2957H42.1772C43.5907 16.2957 44.1593 15.3697 44.1593 13.8262V7.16493C44.1593 6.58004 44.0456 6.48256 42.9896 6.10887L46.4989 5.44275V12.2015C46.4989 13.8749 47.6199 16.2795 49.4721 16.2795H50.9506V17.2543H49.8945V17.2706ZM46.7914 21.0399C46.7914 21.7872 46.239 22.3884 45.4429 22.3884C44.6468 22.3884 44.0943 21.771 44.0943 21.0399C44.0943 20.3087 44.6468 19.7076 45.4429 19.7076C46.239 19.7076 46.7914 20.2925 46.7914 21.0399ZM59.7077 17.2706C58.3592 17.2706 57.1894 16.442 56.3608 15.2072C55.7272 16.7994 54.1025 17.2706 52.4291 17.2706H50.4632V16.2957H51.9417C53.3551 16.2957 53.9238 15.3697 53.9238 13.8262V1.99839C53.9238 1.41349 53.8101 1.31601 52.754 0.942329L56.2309 0.276202V12.2177C56.2309 13.8912 57.4006 16.2957 59.2203 16.2957H60.2601V17.2706H59.6752H59.7077ZM64.1432 16.2957C64.3869 16.2957 66.0278 16.1658 66.7102 15.7433C65.9466 14.866 65.4429 14.0699 64.0294 11.2267C63.5745 10.3818 62.6484 9.17956 62.226 8.62716C62.0148 8.33471 61.7548 7.96103 61.6736 7.8798C61.7548 7.83106 61.8361 7.74982 62.0148 7.63609C64.0782 6.41757 66.2065 5.65396 68.0424 5.65396C71.3081 5.65396 73.6639 7.37614 73.6639 10.3493C73.6639 12.9489 71.0156 14.5898 68.7086 15.8408C69.0497 16.1333 69.4234 16.2957 70.2683 16.2957H77.1082V17.2706H70.6419C68.6761 17.2706 68.0424 16.8806 67.6525 16.6044C67.6525 16.6044 67.62 16.6044 67.62 16.5719C66.8239 16.9944 66.1578 17.2543 64.7768 17.2543H59.7889V16.2795H64.1432V16.2957ZM63.7532 8.02602C64.6793 9.14706 65.3454 10.3331 65.8816 11.5029C66.434 12.6239 67.2301 14.1836 67.9287 14.9472C69.8133 13.7775 71.0644 12.7701 71.0644 10.2519C71.0644 8.23723 70.0571 6.775 68.0912 6.775C66.6614 6.775 65.1505 7.24616 63.7695 8.02602H63.7532ZM86.3203 17.2868C84.9718 17.2868 83.8345 16.4582 82.9734 15.2234C82.3398 16.8156 80.7151 17.2868 79.0416 17.2868H76.6208V16.312H78.5867C79.9677 16.312 80.5689 15.3859 80.5689 13.8424V7.18118C80.5689 6.59628 80.4551 6.4988 79.3828 6.12512L82.9084 5.45899V12.2177C82.9084 13.8912 84.0295 16.2957 85.8491 16.2957H87.3601V17.2706H86.3041L86.3203 17.2868ZM80.5851 1.3485C80.5851 2.09587 80.0002 2.69701 79.2366 2.69701C78.408 2.69701 77.8881 2.07962 77.8881 1.3485C77.8881 0.617389 78.4242 0 79.2366 0C80.0002 0 80.5851 0.584895 80.5851 1.3485ZM84.4031 1.3485C84.4031 2.09587 83.8508 2.69701 83.0547 2.69701C82.2586 2.69701 81.7061 2.07962 81.7061 1.3485C81.7061 0.617389 82.2586 0 83.0547 0C83.8508 0 84.4031 0.584895 84.4031 1.3485ZM86.8889 16.312H87.4738C88.9523 16.312 89.5697 15.3372 89.5697 13.7612V2.16085C89.5697 1.54347 89.5697 1.36475 88.3999 0.991068L91.9093 0.324941V13.8262C91.9093 16.052 90.2846 17.2706 88.0425 17.2706H86.9052V16.2957L86.8889 16.312ZM95.4349 2.1771C95.4349 1.55971 95.4024 1.381 94.2976 1.00732L97.7744 0.341192V17.2868H95.4349V2.16085V2.1771Z" fill="white"/>
</svg>
