<svg xmlns="http://www.w3.org/2000/svg" xmlns:xlink="http://www.w3.org/1999/xlink" width="220.536" height="39.751" viewBox="0 0 220.536 39.751">
  <defs>
    <clipPath id="clip-path">
      <rect id="Rectangle_5" data-name="Rectangle 5" width="220.536" height="39.751" fill="#bc8a8d"/>
    </clipPath>
  </defs>
  <g id="Group_9" data-name="Group 9" transform="translate(26 -3.083)">
    <g id="Group_7" data-name="Group 7" transform="translate(-26 3.083)" clip-path="url(#clip-path)">
      <path id="Path_1" data-name="Path 1" d="M47.233,30.506c-.1.18-.178.307-.24.442a4.426,4.426,0,0,1-3.437,2.514,18.185,18.185,0,0,1-1.858.132,6.263,6.263,0,0,1-2.8-.4,3.539,3.539,0,0,1-2.222-1.922,4.323,4.323,0,0,1,1.441-5.2,13.279,13.279,0,0,1,3.029-1.25c1.433-.473,2.868-.942,4.289-1.45a2.658,2.658,0,0,0,1.8-2.472,13.314,13.314,0,0,0-.118-3.206A2.313,2.313,0,0,0,44.6,15.533a5.248,5.248,0,0,0-2.219.249,1.905,1.905,0,0,0-1.084.852,2.132,2.132,0,0,0-.14,1.183c.057.59.137,1.178.2,1.768A1.383,1.383,0,0,1,40.192,21.2c-.01,0-.019.008-.028.007a7.1,7.1,0,0,1-1.634-.1,1.471,1.471,0,0,1-.928-1.48,4.177,4.177,0,0,1,2.311-3.865,8.166,8.166,0,0,1,3.93-.993,8.95,8.95,0,0,1,3.757.613,4.9,4.9,0,0,1,3.177,4.144,16.959,16.959,0,0,1,.124,1.976q.018,4.872,0,9.745a1.51,1.51,0,0,0,1.445,1.637c.923.02,1.848,0,2.771.007.239,0,.323-.09.322-.322-.005-1.054,0-2.108,0-3.163q0-6.037,0-12.073c0-.105-.01-.211,0-.316.024-.281-.09-.393-.382-.388-.8.013-1.6,0-2.4,0a.4.4,0,0,1-.37-.635.4.4,0,0,1,.3-.115c.645-.011,1.289-.009,1.935-.008q1.992,0,3.985,0c.522,0,.645.119.645.646q0,6.554,0,13.108c0,1.016,0,2.031,0,3.047,0,.354.024.381.372.381,1.857,0,3.715,0,5.572.007.278,0,.336-.1.335-.354q-.009-4.843,0-9.687c0-2.012-.006-4.024.006-6.037,0-.29-.07-.372-.368-.362-.741.027-1.482.013-2.223.01-.345,0-.573-.151-.57-.36,0-.231.235-.4.574-.4q2.844,0,5.688,0c.408,0,.55.144.551.562,0,1.082,0,2.165,0,3.248v.3l.076.02.43-.789a7.085,7.085,0,0,1,4.378-3.5,5.928,5.928,0,0,1,1.818-.256,7.528,7.528,0,0,1,1.81.072,16.049,16.049,0,0,1,1.769.51,4.507,4.507,0,0,1,2.953,4.014c.05.512.052,1.03.053,1.545q.009,5.419.007,10.837c0,.456,0,.456.468.456.809,0,1.617.01,2.425,0,.218,0,.308.07.283.278s.107.479-.266.487c-.2,0-.4,0-.607,0-2.9,0-5.793,0-8.69-.007a.6.6,0,0,1-.434-.18c-.185-.269.018-.569.374-.574.712-.011,1.424-.007,2.136-.007.6,0,.594,0,.595-.595q0-6.324.01-12.648a4.2,4.2,0,0,0-.619-2.353,2.424,2.424,0,0,0-1.979-1.115,6.344,6.344,0,0,0-6.162,3.914,8.777,8.777,0,0,0-.761,3.8c.014,2.922,0,5.845,0,8.767,0,.4,0,.4.4.4.76,0,1.52,0,2.281,0a1.5,1.5,0,0,1,.316.019c.215.047.3.246.128.378a.944.944,0,0,1-.541.193q-3.665.018-7.331,0c-.7,0-1.4-.048-2.1-.047-.932,0-1.864.045-2.8.047q-4.23.011-8.46,0a4.106,4.106,0,0,1-2.151-.565,3.767,3.767,0,0,1-1.551-2.246l-.1-.327m-.093-7.281a5.481,5.481,0,0,1-2.014,1.122c-.882.358-1.78.681-2.65,1.065a3.63,3.63,0,0,0-2.339,2.882,5.6,5.6,0,0,0,.188,2.588,2.355,2.355,0,0,0,2.083,1.741,7.388,7.388,0,0,0,1.722-.07,2.717,2.717,0,0,0,.956-.376,3.906,3.906,0,0,0,1.858-2.967,17.006,17.006,0,0,0,.189-2.228c.03-1.233.008-2.469.008-3.756" transform="translate(-9.459 -3.84)"/>
      <path id="Path_2" data-name="Path 2" d="M10.859,26.675a3.773,3.773,0,0,0-.188.337,4.377,4.377,0,0,1-3.32,2.58,8.712,8.712,0,0,1-4.37-.077,4.275,4.275,0,0,1-2.228-1.36,3.243,3.243,0,0,1-.7-1.764,4.561,4.561,0,0,1,.3-2.535,4.087,4.087,0,0,1,2.284-2.091c1.179-.462,2.4-.815,3.6-1.227,1-.344,2.009-.669,2.987-1.069a2.54,2.54,0,0,0,1.629-2.352,13.131,13.131,0,0,0-.147-3.493A2.266,2.266,0,0,0,8.336,11.7a7.014,7.014,0,0,0-2.091.152,1.814,1.814,0,0,0-1.459,2.2q.105.87.2,1.739a1.4,1.4,0,0,1-1.278,1.588,4.451,4.451,0,0,1-1.122-.011,1.475,1.475,0,0,1-1.366-1.6,3.948,3.948,0,0,1,1.489-3.252A6.683,6.683,0,0,1,6.485,11a10.168,10.168,0,0,1,3.614.153,5.184,5.184,0,0,1,4.32,4.626,16.115,16.115,0,0,1,.1,1.69c.01,2.606,0,5.213,0,7.819,0,.718.014,1.436.005,2.154a1.52,1.52,0,0,0,1.631,1.608c.517-.035,1.039-.007,1.558-.009.351,0,.367-.019.368-.382s0-.728,0-1.092V1.236c0-.465,0-.465-.477-.465-.8,0-1.6,0-2.4,0-.341,0-.361-.027-.36-.391S14.864,0,15.221,0h6.15c.44,0,.441,0,.441.448q0,14.057,0,28.113c0,.741-.1.639.638.644.712.006,1.424,0,2.137.005.16,0,.365-.021.375.21s-.149.341-.361.378a1.137,1.137,0,0,1-.2.007c-2.916,0-5.833.006-8.748-.005a15.8,15.8,0,0,1-1.8-.107,3.223,3.223,0,0,1-2.751-2.31c-.076-.2-.14-.414-.24-.71M6.638,28.81a3.538,3.538,0,0,0,3.732-2.644,9.865,9.865,0,0,0,.368-2.284c.071-1.346.053-2.7.068-4.046a1.215,1.215,0,0,0-.06-.269,1.8,1.8,0,0,0-.283.091c-.46.234-.9.5-1.378.707-1.024.437-2.075.815-3.092,1.266a3.692,3.692,0,0,0-2.229,2.745,6,6,0,0,0,.087,2.336,2.431,2.431,0,0,0,1.07,1.668,2.772,2.772,0,0,0,1.716.431" transform="translate(0 0)"/>
      <path id="Path_3" data-name="Path 3" d="M111.837,26.711c.147.132.226.2.3.269L131.44,46.2a.4.4,0,0,1,.081.082c.061.111.115.226.171.339a1.69,1.69,0,0,1-.35.075q-9.51.006-19.019,0c-.452,0-.514-.059-.515-.516q0-9.554,0-19.11c0-.09.016-.181.033-.365" transform="translate(-29.092 -6.95)" fill="#bc8a8d"/>
      <path id="Path_4" data-name="Path 4" d="M282.831,18.045a11.441,11.441,0,0,1-.887,1.061,2.985,2.985,0,0,1-1.877.8,8.311,8.311,0,0,1-1.923-.012,2.643,2.643,0,0,1-2.415-1.642,2.749,2.749,0,0,1,1.505-3.626,18.331,18.331,0,0,1,1.949-.7c.763-.263,1.533-.509,2.3-.774a1.792,1.792,0,0,0,1.327-1.7,16,16,0,0,0-.115-2.257,1.387,1.387,0,0,0-1.36-1.263,3.52,3.52,0,0,0-1.765.146,1.091,1.091,0,0,0-.781,1.3c.052.418.1.836.141,1.255a.927.927,0,0,1-.609.969,1.888,1.888,0,0,1-1.33-.022,1.05,1.05,0,0,1-.606-1.141A2.725,2.725,0,0,1,277.5,8.281a4.639,4.639,0,0,1,2.287-.881,6.275,6.275,0,0,1,3.262.327,3.3,3.3,0,0,1,2.162,2.818,7.9,7.9,0,0,1,.059.973c.006,2.193,0,4.388.007,6.582a1.874,1.874,0,0,0,.074.594.913.913,0,0,0,.849.7c.384.018.768.032,1.152.047.194.008.285-.084.278-.277,0-.067,0-.134,0-.2q0-8.924,0-17.85c0-.076,0-.153,0-.229.01-.211-.095-.294-.3-.288-.221.006-.443,0-.664,0s-.462,0-.692-.005c-.27-.009-.533-.186-.493-.343.061-.24.28-.232.47-.233,1.289-.005,2.579,0,3.868-.01.22,0,.325.077.309.3-.008.124,0,.249,0,.374V18.822c0,.115,0,.23,0,.345.008.332.058.388.387.393.481.006.962,0,1.443.013a.838.838,0,0,1,.28.125,1.167,1.167,0,0,1-.251.24.729.729,0,0,1-.311.031q-3.061,0-6.12,0a4.873,4.873,0,0,1-.8-.075,2.053,2.053,0,0,1-1.595-1.189c-.11-.231-.223-.461-.32-.659m-.12-4.9c-.3.152-.569.311-.857.433-.628.266-1.264.512-1.9.768a2.576,2.576,0,0,0-1.872,2.186,5.39,5.39,0,0,0,.071,1.312,1.568,1.568,0,0,0,1.429,1.4,2.341,2.341,0,0,0,2.847-1.665,6.906,6.906,0,0,0,.306-1.858c.053-.817.022-1.642.025-2.463,0-.025-.022-.051-.052-.116" transform="translate(-71.696 -0.002)" fill="#bc8a8d"/>
      <path id="Path_5" data-name="Path 5" d="M151.363,17.894a10.2,10.2,0,0,1-.715,1.129,3.327,3.327,0,0,1-2.52,1.272,5.883,5.883,0,0,1-5.515-3.226,6.126,6.126,0,0,1,.664-7.183,5.557,5.557,0,0,1,4.51-2.126,3.685,3.685,0,0,1,3.252,1.847l.161.265h.062a2.41,2.41,0,0,0,.032-.28q0-4.269.005-8.537c0-.277-.1-.373-.374-.365-.461.015-.923,0-1.385,0-.187,0-.318-.05-.323-.271-.005-.237.142-.257.323-.257,1.366,0,2.732-.012,4.1-.006.07,0,.171.11.2.191a.916.916,0,0,1,.01.313V18.883c0,.482,0,.484.492.485.433,0,.866.005,1.3,0,.21,0,.293.081.291.291s-.072.3-.286.3c-1.28-.005-2.56,0-3.839-.008-.317,0-.437-.127-.442-.442-.009-.544,0-1.09,0-1.612m-.05-4.248c-.03-.478-.042-1.294-.142-2.1a3.39,3.39,0,0,0-3.541-3.276,2.713,2.713,0,0,0-2.494,1.677,7.263,7.263,0,0,0-.459,2.843c-.038.935-.03,1.873,0,2.809a7.083,7.083,0,0,0,.379,2.428,2.541,2.541,0,0,0,1,1.329,3.762,3.762,0,0,0,2.513.371,2.38,2.38,0,0,0,.836-.289,3.332,3.332,0,0,0,1.609-2.18,14.934,14.934,0,0,0,.3-3.613" transform="translate(-36.883 -0.041)" fill="#bc8a8d"/>
      <path id="Path_6" data-name="Path 6" d="M226.925,15.246v5.2c0,.422,0,.423.436.425.453,0,.9.005,1.357,0,.211,0,.29.086.289.292s-.076.3-.289.3q-3.058-.006-6.12,0c-.218,0-.309-.1-.309-.316s.117-.272.31-.271c.49.005.982-.006,1.473,0,.226,0,.3-.087.3-.306q-.007-5.059,0-10.118c0-.237-.1-.32-.328-.319q-2.555.008-5.11,0c-.233,0-.325.084-.325.32,0,3.056,0,6.113.015,9.169a2.387,2.387,0,0,0,.252.962,1.593,1.593,0,0,0,2.094.553,2.332,2.332,0,0,0,1.153-1.27c.081-.193.129-.4.192-.6a.3.3,0,0,1,.408-.211c.195.055.156.211.12.356a2.977,2.977,0,0,1-1.285,1.94,2.843,2.843,0,0,1-1.064.4,5.336,5.336,0,0,1-2.783-.263,2.51,2.51,0,0,1-1.588-2.248c-.043-.428-.061-.859-.062-1.289q-.008-3.707,0-7.416c0-.4,0-.4-.4-.4-.461,0-.923,0-1.386,0-.183,0-.289-.058-.29-.264s.1-.263.289-.26c.482,0,.962-.011,1.443,0,.26.007.357-.078.352-.346-.013-.91-.005-1.82,0-2.731,0-.382.073-.432.452-.331a2.247,2.247,0,0,0,1.756-.179c.263-.149.344-.1.345.2,0,.929,0,1.858,0,2.788,0,.622-.083.6.584.6q3.609,0,7.216-.006c.514,0,.514,0,.514.525v5.116" transform="translate(-55.677 -1.546)" fill="#bc8a8d"/>
      <path id="Path_7" data-name="Path 7" d="M258.219,13.48c.061-.1.129-.186.18-.286a4.926,4.926,0,0,1,5.234-2.646,4.26,4.26,0,0,1,2.266.908,2.9,2.9,0,0,1,1.069,2.208c.05,2.1.051,4.194.069,6.291.005.584.01,1.169,0,1.753-.006.257.073.363.344.354.471-.017.943,0,1.414-.007.2,0,.327.041.329.283s-.112.31-.337.309q-3.016-.007-6.033,0c-.209,0-.35-.034-.352-.294s.133-.3.346-.3c.471.007.943-.006,1.414.005.23.005.327-.067.326-.311-.006-2.864,0-5.73-.01-8.594a2.291,2.291,0,0,0-.465-1.424,1.858,1.858,0,0,0-1.8-.681,4.21,4.21,0,0,0-3.561,2.805,5.4,5.4,0,0,0-.394,2.188c.022,1.83.007,3.66.007,5.489,0,.522,0,.523.51.525.423,0,.846,0,1.269,0,.2,0,.3.062.3.28s-.079.312-.3.311q-3.046-.007-6.091,0c-.206,0-.32-.058-.325-.292,0-.258.129-.3.343-.3.472.008.944-.008,1.415.007.258.008.329-.095.328-.339q-.008-5.015,0-10.03c0-.347-.027-.371-.384-.372-.462,0-.923-.005-1.385,0-.193,0-.312-.05-.31-.274s.121-.25.3-.25c1.318,0,2.636,0,3.954-.008.239,0,.329.091.321.323-.021.65-.034,1.3-.048,1.952,0,.132,0,.265,0,.4Z" transform="translate(-65.994 -2.73)" fill="#bc8a8d"/>
      <path id="Path_8" data-name="Path 8" d="M171.654,20.171c-.166.282-.3.51-.434.739a4.024,4.024,0,0,1-3.072,2.144,4.655,4.655,0,0,1-3.973-1.112A3.129,3.129,0,0,1,163.341,20a7.148,7.148,0,0,1-.067-1.03q-.008-3.55,0-7.1c0-.442-.006-.446-.454-.447s-.9,0-1.357,0c-.191,0-.32-.054-.318-.274s.132-.25.307-.251c1.338,0,2.675,0,4.013-.01.308,0,.308.176.308.394,0,2.424-.012,4.848,0,7.272,0,.735.044,1.474.118,2.205a1.974,1.974,0,0,0,1.1,1.625,2.224,2.224,0,0,0,1.982-.013,4.517,4.517,0,0,0,2.174-2.362,5.02,5.02,0,0,0,.444-2.146c-.007-2,0-4.005,0-6.008,0-.423-.01-.431-.439-.432l-1.27,0c-.192,0-.372.006-.37-.272s.175-.252.354-.252l3.868-.005c.408,0,.412,0,.412.424q0,5.189,0,10.377c0,.465,0,.466.479.468.434,0,.866.005,1.3,0,.2,0,.3.061.3.279s-.078.313-.3.311c-1.27-.006-2.541,0-3.811-.008-.33,0-.45-.126-.453-.461-.007-.677,0-1.354,0-2.108" transform="translate(-41.93 -2.833)" fill="#bc8a8d"/>
      <path id="Path_9" data-name="Path 9" d="M205.776,21.026a7.248,7.248,0,0,1-.577.854,3.453,3.453,0,0,1-2.5,1.08,12.763,12.763,0,0,1-1.612-.056,3.25,3.25,0,0,1-1.69-.685,2.317,2.317,0,0,1-.823-1.939,2.517,2.517,0,0,1,1.028-2.228,6.493,6.493,0,0,1,1.925-.894c1.006-.323,2.013-.645,3.011-.992a1.679,1.679,0,0,0,1.215-1.616c.027-.648.01-1.3-.012-1.947a1.555,1.555,0,0,0-.5-1.161,2.54,2.54,0,0,0-1.119-.459,2.946,2.946,0,0,0-1.616.176,1,1,0,0,0-.725,1.05c.019.505.095,1.009.112,1.515a.856.856,0,0,1-.827.984,3.75,3.75,0,0,1-1.028-.047.734.734,0,0,1-.579-.611,2.629,2.629,0,0,1,.969-2.633,5.219,5.219,0,0,1,2.987-.988,6.273,6.273,0,0,1,2.28.274,3.329,3.329,0,0,1,2.486,3.261c.053,2.345.044,4.692.061,7.038,0,.058,0,.115,0,.172-.021.991.269,1.227,1.362,1.041a2.377,2.377,0,0,0,.584-.237c.166-.078.308-.028.356.119a.361.361,0,0,1-.094.328,3.616,3.616,0,0,1-3.263.329,2,2,0,0,1-1.158-1.177c-.075-.174-.159-.343-.255-.551m-.058-4.87a7.416,7.416,0,0,1-.7.394c-.778.329-1.569.63-2.346.963a2.472,2.472,0,0,0-1.1.8,3.179,3.179,0,0,0-.24,3.1.89.89,0,0,0,.194.282,2.441,2.441,0,0,0,2.44.468,2.545,2.545,0,0,0,1.619-2.107,17.846,17.846,0,0,0,.176-3.464c0-.139-.021-.277-.034-.434" transform="translate(-51.669 -2.711)" fill="#bc8a8d"/>
      <path id="Path_10" data-name="Path 10" d="M241.975,22.986a6.507,6.507,0,0,1-4.337-1.562,6.247,6.247,0,0,1-2.084-3.075,5.55,5.55,0,0,1,1.3-5.526,7.035,7.035,0,0,1,2.819-1.99,5.716,5.716,0,0,1,4.976.385,6.9,6.9,0,0,1,2.823,2.8,5.416,5.416,0,0,1,.286,4.822,6.678,6.678,0,0,1-3.461,3.578,4.983,4.983,0,0,1-2.322.572m3.3-6.234a10.791,10.791,0,0,0-.353-3.472,2.986,2.986,0,0,0-1.036-1.687,3.873,3.873,0,0,0-3.527-.423,2.33,2.33,0,0,0-1.321,1.05,4.7,4.7,0,0,0-.724,2.191c-.092,1.22-.137,2.447-.109,3.669a6.886,6.886,0,0,0,.637,2.784,2.43,2.43,0,0,0,1.616,1.443,6.2,6.2,0,0,0,2.034.119,2.348,2.348,0,0,0,1.329-.507,3.548,3.548,0,0,0,1.1-1.784,10.039,10.039,0,0,0,.354-3.382" transform="translate(-61.225 -2.715)" fill="#bc8a8d"/>
      <path id="Path_11" data-name="Path 11" d="M131.6,15.844q-1.891,0-3.783,0c-.389,0-.4,0-.394.379a17.971,17.971,0,0,0,.175,3.464,4,4,0,0,0,.784,1.712,2.578,2.578,0,0,0,1.764.994,4.939,4.939,0,0,0,2.955-.382,3.56,3.56,0,0,0,1.715-1.932,1.306,1.306,0,0,1,.22-.461c.1-.094.286-.095.434-.137a.983.983,0,0,1,.038.363,4.449,4.449,0,0,1-4.187,3.13,7.644,7.644,0,0,1-3.032-.45,5.674,5.674,0,0,1-3.637-4.32,6.46,6.46,0,0,1,4.986-7.669,5.032,5.032,0,0,1,6.091,4.124c.043.274.058.552.09.827.035.3-.01.356-.321.357-.971,0-1.943,0-2.916,0H131.6Zm-1.157-.527h0c.721,0,1.441-.007,2.162,0a.277.277,0,0,0,.323-.308c.007-.526.03-1.054-.006-1.578a4.9,4.9,0,0,0-.215-1.15,1.642,1.642,0,0,0-.911-1.093,3.146,3.146,0,0,0-2.174-.113,2.737,2.737,0,0,0-1.817,2.07,18,18,0,0,0-.337,1.921c-.035.2.053.25.235.249.913,0,1.827,0,2.739,0" transform="translate(-32.398 -2.712)" fill="#bc8a8d"/>
      <path id="Path_12" data-name="Path 12" d="M185.23,16.632c.087.909.132,1.946.3,2.962a3.237,3.237,0,0,0,1.449,2.385,2.925,2.925,0,0,0,1.173.427,6.345,6.345,0,0,0,1.807-.044A3.483,3.483,0,0,0,192.7,20.11a2.654,2.654,0,0,1,.265-.538c.105-.153.291-.24.443-.092.064.061.043.257,0,.37a4.64,4.64,0,0,1-.977,1.708,4.456,4.456,0,0,1-2.955,1.4A7.078,7.078,0,0,1,185,21.91a5.434,5.434,0,0,1-2.49-3.806,6.338,6.338,0,0,1,1.6-5.641,6.224,6.224,0,0,1,3.839-1.976,5.939,5.939,0,0,1,3.825.661,2.852,2.852,0,0,1,1.557,2.216,1.427,1.427,0,0,1-1.506,1.6,2.958,2.958,0,0,1-.783-.17.811.811,0,0,1-.548-1.031c.092-.44.214-.874.327-1.31a.922.922,0,0,0-.411-1.05,3.363,3.363,0,0,0-3.948.4A5.3,5.3,0,0,0,185.506,14a5.262,5.262,0,0,0-.113.621c-.058.628-.1,1.258-.163,2.013" transform="translate(-47.46 -2.71)" fill="#bc8a8d"/>
    </g>
  </g>
</svg>
