<svg id="Group_64282" data-name="Group 64282" xmlns="http://www.w3.org/2000/svg" xmlns:xlink="http://www.w3.org/1999/xlink" width="353.698" height="42.279" viewBox="0 0 353.698 42.279">
  <defs>
    <clipPath id="clip-path">
      <rect id="Rectangle_16" data-name="Rectangle 16" width="353.698" height="42.279" fill="#fff"/>
    </clipPath>
  </defs>
  <g id="Group_15" data-name="Group 15" transform="translate(0 0)" clip-path="url(#clip-path)">
    <path id="Path_40" data-name="Path 40" d="M34.428,31.014A23.326,23.326,0,0,1,31.5,37.028c-1.761,2.574-3.592,5.144-6.472,5.2-2.831.052-3.741-1.68-6.977-1.68s-4.251,1.628-6.928,1.732c-2.782.1-4.9-2.785-6.677-5.349-3.632-5.251-6.4-14.837-2.677-21.3a10.338,10.338,0,0,1,8.746-5.3c2.733-.052,5.308,1.835,6.979,1.835s4.8-2.271,8.093-1.939a9.886,9.886,0,0,1,7.733,4.195,9.572,9.572,0,0,0-4.57,8.047,9.335,9.335,0,0,0,5.678,8.554m-11-24.265A9.289,9.289,0,0,0,25.63,0,9.438,9.438,0,0,0,19.4,3.2,8.841,8.841,0,0,0,17.159,9.74a7.845,7.845,0,0,0,6.27-2.99" transform="translate(0 0)" fill="#fff"/>
    <path id="Path_41" data-name="Path 41" d="M75.926,26.675a5.174,5.174,0,0,1,5.429,5.418,5.233,5.233,0,0,1-5.509,5.441H72.3v5.635h-2.56V26.675ZM72.3,35.385h2.938c2.229,0,3.5-1.2,3.5-3.281s-1.269-3.269-3.487-3.269H72.3Z" transform="translate(-23.097 -8.834)" fill="#fff"/>
    <path id="Path_42" data-name="Path 42" d="M89.836,33.295h2.355v2.046h.057a2.867,2.867,0,0,1,2.892-2.172,3.761,3.761,0,0,1,.845.092v2.309a3.453,3.453,0,0,0-1.108-.148A2.486,2.486,0,0,0,92.3,38.187V45.32H89.836Z" transform="translate(-29.751 -10.985)" fill="#fff"/>
    <path id="Path_43" data-name="Path 43" d="M99.992,39.3c0-3.784,2.229-6.161,5.7-6.161s5.7,2.377,5.7,6.161-2.206,6.161-5.7,6.161-5.7-2.366-5.7-6.161m8.893,0c0-2.594-1.189-4.126-3.189-4.126s-3.189,1.543-3.189,4.126c0,2.606,1.189,4.126,3.189,4.126s3.189-1.52,3.189-4.126" transform="translate(-33.114 -10.973)" fill="#fff"/>
    <path id="Path_44" data-name="Path 44" d="M120.507,33.172H118.85V31.218h1.657V30.131c0-2.263,1.017-3.234,3.5-3.234a7.269,7.269,0,0,1,1.246.1v1.863a5.187,5.187,0,0,0-.892-.08c-.983,0-1.395.423-1.406,1.429v1.006h2.309v1.954h-2.275v10.07h-2.48Z" transform="translate(-39.359 -8.907)" fill="#fff"/>
    <path id="Path_45" data-name="Path 45" d="M140.722,41.776c-.332,2.183-2.458,3.681-5.178,3.681-3.5,0-5.67-2.343-5.67-6.1s2.183-6.218,5.567-6.218c3.326,0,5.418,2.286,5.418,5.933v.846h-8.493v.148a3.132,3.132,0,0,0,3.234,3.406,2.722,2.722,0,0,0,2.778-1.692Zm-8.344-3.589h6.012a2.891,2.891,0,0,0-2.949-3.052,3.045,3.045,0,0,0-3.063,3.052" transform="translate(-43.01 -10.973)" fill="#fff"/>
    <path id="Path_46" data-name="Path 46" d="M153.559,33.152c2.663,0,4.572,1.475,4.629,3.6h-2.32c-.1-1.063-1.006-1.714-2.378-1.714-1.337,0-2.229.617-2.229,1.554,0,.72.595,1.2,1.84,1.509l2.023.469c2.423.583,3.338,1.474,3.338,3.234,0,2.172-2.058,3.658-5,3.658-2.835,0-4.743-1.452-4.926-3.646h2.446c.171,1.154,1.1,1.772,2.594,1.772,1.475,0,2.4-.606,2.4-1.566,0-.743-.457-1.143-1.714-1.463l-2.149-.526c-2.172-.526-3.269-1.635-3.269-3.3,0-2.126,1.909-3.578,4.709-3.578" transform="translate(-49.192 -10.979)" fill="#fff"/>
    <path id="Path_47" data-name="Path 47" d="M170.828,33.152c2.663,0,4.572,1.475,4.629,3.6h-2.32c-.1-1.063-1.006-1.714-2.378-1.714-1.337,0-2.229.617-2.229,1.554,0,.72.595,1.2,1.84,1.509l2.023.469c2.423.583,3.338,1.474,3.338,3.234,0,2.172-2.058,3.658-5,3.658-2.835,0-4.743-1.452-4.926-3.646h2.446c.171,1.154,1.1,1.772,2.594,1.772,1.475,0,2.4-.606,2.4-1.566,0-.743-.457-1.143-1.714-1.463l-2.149-.526c-2.172-.526-3.269-1.635-3.269-3.3,0-2.126,1.909-3.578,4.709-3.578" transform="translate(-54.911 -10.979)" fill="#fff"/>
    <path id="Path_48" data-name="Path 48" d="M183.694,27.921a1.435,1.435,0,1,1,1.429,1.406,1.412,1.412,0,0,1-1.429-1.406m.194,3.166h2.469V43.112h-2.469Z" transform="translate(-60.834 -8.777)" fill="#fff"/>
    <path id="Path_49" data-name="Path 49" d="M190.649,39.3c0-3.784,2.229-6.161,5.7-6.161s5.7,2.377,5.7,6.161-2.206,6.161-5.7,6.161-5.7-2.366-5.7-6.161m8.893,0c0-2.594-1.189-4.126-3.189-4.126s-3.189,1.543-3.189,4.126c0,2.606,1.189,4.126,3.189,4.126s3.189-1.52,3.189-4.126" transform="translate(-63.137 -10.973)" fill="#fff"/>
    <path id="Path_50" data-name="Path 50" d="M210.734,33.289h2.355v2.046h.057a3.843,3.843,0,0,1,3.784-2.183c2.652,0,4.171,1.7,4.171,4.458v7.7h-2.48V38.09c0-1.806-.835-2.812-2.572-2.812a2.794,2.794,0,0,0-2.847,3.109v6.927h-2.469Z" transform="translate(-69.789 -10.979)" fill="#fff"/>
    <path id="Path_51" data-name="Path 51" d="M229.353,41.867c0-2.1,1.611-3.337,4.606-3.52l3.2-.183V37.25c0-1.36-.9-2.091-2.469-2.091a2.258,2.258,0,0,0-2.435,1.691h-2.309c.069-2.149,2.081-3.715,4.812-3.715,2.949,0,4.858,1.543,4.858,3.932v8.241h-2.366V43.331h-.058A4.278,4.278,0,0,1,233.4,45.48c-2.388,0-4.046-1.475-4.046-3.612M237.16,40.8v-.926l-2.881.183c-1.6.092-2.446.709-2.446,1.749,0,1.006.88,1.714,2.252,1.714a2.849,2.849,0,0,0,3.075-2.72" transform="translate(-75.955 -10.973)" fill="#fff"/>
    <rect id="Rectangle_15" data-name="Rectangle 15" width="2.469" height="16.494" transform="translate(166.377 17.841)" fill="#fff"/>
    <path id="Path_52" data-name="Path 52" d="M274.721,43.169H264.479V26.675h2.561V40.951h7.681Z" transform="translate(-87.587 -8.834)" fill="#fff"/>
    <path id="Path_53" data-name="Path 53" d="M292.149,41.776c-.332,2.183-2.458,3.681-5.179,3.681-3.5,0-5.669-2.343-5.669-6.1s2.182-6.218,5.566-6.218c3.327,0,5.419,2.286,5.419,5.933v.846h-8.493v.148a3.132,3.132,0,0,0,3.235,3.406,2.722,2.722,0,0,0,2.778-1.692ZM283.8,38.187h6.013a2.892,2.892,0,0,0-2.95-3.052,3.045,3.045,0,0,0-3.063,3.052" transform="translate(-93.158 -10.973)" fill="#fff"/>
    <path id="Path_54" data-name="Path 54" d="M300.142,41.867c0-2.1,1.612-3.337,4.607-3.52l3.2-.183V37.25c0-1.36-.9-2.091-2.469-2.091a2.258,2.258,0,0,0-2.435,1.691h-2.309c.068-2.149,2.08-3.715,4.812-3.715,2.949,0,4.858,1.543,4.858,3.932v8.241h-2.366V43.331h-.057a4.278,4.278,0,0,1-3.795,2.149c-2.388,0-4.046-1.475-4.046-3.612m7.807-1.063v-.926l-2.881.183c-1.6.092-2.446.709-2.446,1.749,0,1.006.88,1.714,2.251,1.714a2.85,2.85,0,0,0,3.075-2.72" transform="translate(-99.398 -10.973)" fill="#fff"/>
    <path id="Path_55" data-name="Path 55" d="M319.41,33.295h2.355v2.046h.057a2.867,2.867,0,0,1,2.892-2.172,3.757,3.757,0,0,1,.845.092v2.309a3.45,3.45,0,0,0-1.108-.148,2.486,2.486,0,0,0-2.572,2.766V45.32H319.41Z" transform="translate(-105.779 -10.985)" fill="#fff"/>
    <path id="Path_56" data-name="Path 56" d="M331.245,33.289H333.6v2.046h.056a3.844,3.844,0,0,1,3.784-2.183c2.652,0,4.171,1.7,4.171,4.458v7.7h-2.48V38.09c0-1.806-.835-2.812-2.572-2.812a2.794,2.794,0,0,0-2.846,3.109v6.927h-2.469Z" transform="translate(-109.698 -10.979)" fill="#fff"/>
    <path id="Path_57" data-name="Path 57" d="M350.48,27.921a1.435,1.435,0,1,1,1.428,1.406,1.412,1.412,0,0,1-1.428-1.406m.194,3.166h2.469V43.112h-2.469Z" transform="translate(-116.068 -8.777)" fill="#fff"/>
    <path id="Path_58" data-name="Path 58" d="M358.588,33.289h2.355v2.046H361a3.844,3.844,0,0,1,3.784-2.183c2.652,0,4.172,1.7,4.172,4.458v7.7h-2.48V38.09c0-1.806-.834-2.812-2.572-2.812a2.794,2.794,0,0,0-2.847,3.109v6.927h-2.469Z" transform="translate(-118.753 -10.979)" fill="#fff"/>
    <path id="Path_59" data-name="Path 59" d="M377.274,46.257h2.48a2.856,2.856,0,0,0,2.859,1.669c1.931,0,3.074-1.1,3.074-2.744V43.2h-.045a4.12,4.12,0,0,1-3.806,2.08c-3,0-5-2.354-5-6.023,0-3.7,1.978-6.092,5.052-6.092a4.223,4.223,0,0,1,3.829,2.126h.046v-2h2.4V45.1c0,2.869-2.217,4.743-5.646,4.743-2.835,0-4.938-1.509-5.247-3.589m8.424-6.984c0-2.389-1.268-4-3.2-4-1.9,0-3.131,1.566-3.131,4s1.235,3.966,3.131,3.966c1.932,0,3.2-1.566,3.2-3.966" transform="translate(-124.798 -10.985)" fill="#fff"/>
    <path id="Path_60" data-name="Path 60" d="M411.837,26.675a5.175,5.175,0,0,1,5.429,5.418,5.233,5.233,0,0,1-5.509,5.441h-3.543v5.635h-2.56V26.675Zm-3.624,8.71h2.938c2.229,0,3.5-1.2,3.5-3.281s-1.269-3.269-3.487-3.269h-2.949Z" transform="translate(-134.34 -8.834)" fill="#fff"/>
    <path id="Path_61" data-name="Path 61" d="M425.746,33.295H428.1v2.046h.057a2.867,2.867,0,0,1,2.892-2.172,3.757,3.757,0,0,1,.845.092v2.309a3.45,3.45,0,0,0-1.108-.148,2.486,2.486,0,0,0-2.572,2.766V45.32h-2.469Z" transform="translate(-140.994 -10.985)" fill="#fff"/>
    <path id="Path_62" data-name="Path 62" d="M436.008,39.3c0-3.784,2.229-6.161,5.7-6.161s5.7,2.377,5.7,6.161-2.206,6.161-5.7,6.161-5.7-2.366-5.7-6.161m8.893,0c0-2.594-1.188-4.126-3.19-4.126s-3.189,1.543-3.189,4.126c0,2.606,1.189,4.126,3.189,4.126s3.19-1.52,3.19-4.126" transform="translate(-144.392 -10.973)" fill="#fff"/>
    <path id="Path_63" data-name="Path 63" d="M460.944,45.382h-2.652l-4.331-12.025h2.629l3.018,9.613h.046l3.018-9.613h2.583Z" transform="translate(-150.338 -11.047)" fill="#fff"/>
    <path id="Path_64" data-name="Path 64" d="M473.143,27.921a1.435,1.435,0,1,1,1.429,1.406,1.413,1.413,0,0,1-1.429-1.406m.195,3.166h2.469V43.112h-2.469Z" transform="translate(-156.69 -8.777)" fill="#fff"/>
    <path id="Path_65" data-name="Path 65" d="M480.449,37.156c0-3.715,2.046-6.138,5.029-6.138a4.058,4.058,0,0,1,3.772,2.126h.046V26.675h2.481V43.168h-2.4V41.122h-.045a4.1,4.1,0,0,1-3.83,2.172c-3.006,0-5.052-2.423-5.052-6.138m2.526,0c0,2.469,1.257,4.046,3.178,4.046,1.9,0,3.166-1.6,3.166-4.046,0-2.423-1.268-4.035-3.166-4.035-1.92,0-3.178,1.589-3.178,4.035" transform="translate(-159.11 -8.834)" fill="#fff"/>
    <path id="Path_66" data-name="Path 66" d="M510.856,41.776c-.332,2.183-2.458,3.681-5.179,3.681-3.5,0-5.669-2.343-5.669-6.1s2.183-6.218,5.567-6.218c3.326,0,5.418,2.286,5.418,5.933v.846H502.5v.148a3.132,3.132,0,0,0,3.235,3.406,2.722,2.722,0,0,0,2.778-1.692Zm-8.344-3.589h6.012a2.892,2.892,0,0,0-2.949-3.052,3.044,3.044,0,0,0-3.063,3.052" transform="translate(-165.587 -10.973)" fill="#fff"/>
    <path id="Path_67" data-name="Path 67" d="M519.636,33.295h2.355v2.046h.056a2.869,2.869,0,0,1,2.893-2.172,3.767,3.767,0,0,1,.845.092v2.309a3.458,3.458,0,0,0-1.109-.148,2.486,2.486,0,0,0-2.572,2.766V45.32h-2.469Z" transform="translate(-172.087 -10.985)" fill="#fff"/>
  </g>
</svg>
