<svg xmlns="http://www.w3.org/2000/svg" xmlns:xlink="http://www.w3.org/1999/xlink" width="262.727" height="47.356" viewBox="0 0 262.727 47.356">
  <defs>
    <clipPath id="clip-path">
      <rect id="Rectangle_5" data-name="Rectangle 5" width="262.727" height="47.356" fill="#fff"/>
    </clipPath>
  </defs>
  <g id="Group_14" data-name="Group 14" transform="translate(26 -3.083)">
    <g id="Mask_Group_7" data-name="Mask Group 7" transform="translate(-26 3.083)" clip-path="url(#clip-path)">
      <path id="Path_1" data-name="Path 1" d="M49.315,33.519c-.117.214-.212.366-.286.526a5.273,5.273,0,0,1-4.095,2.995,21.663,21.663,0,0,1-2.213.157,7.461,7.461,0,0,1-3.336-.472,4.215,4.215,0,0,1-2.648-2.29c-.772-1.932-.468-4.816,1.717-6.192a15.819,15.819,0,0,1,3.609-1.489c1.707-.563,3.417-1.123,5.11-1.727a3.167,3.167,0,0,0,2.15-2.945,15.861,15.861,0,0,0-.14-3.819,2.756,2.756,0,0,0-3.007-2.581,6.252,6.252,0,0,0-2.643.3,2.27,2.27,0,0,0-1.291,1.014,2.54,2.54,0,0,0-.167,1.409c.068.7.163,1.4.242,2.106a1.648,1.648,0,0,1-1.392,1.922c-.011,0-.023.01-.033.008a8.459,8.459,0,0,1-1.947-.124,1.752,1.752,0,0,1-1.106-1.764,4.976,4.976,0,0,1,2.753-4.6,9.728,9.728,0,0,1,4.682-1.183,10.662,10.662,0,0,1,4.476.73,5.838,5.838,0,0,1,3.784,4.936,20.2,20.2,0,0,1,.147,2.354q.021,5.8,0,11.609a1.8,1.8,0,0,0,1.721,1.95c1.1.024,2.2,0,3.3.009.285,0,.384-.107.383-.383-.006-1.256,0-2.512,0-3.768q0-7.192,0-14.383c0-.125-.012-.251,0-.376.028-.335-.107-.468-.456-.463-.951.015-1.9,0-2.855,0a.482.482,0,0,1-.441-.756.472.472,0,0,1,.352-.137c.769-.013,1.536-.011,2.3-.01q2.373,0,4.747,0c.622,0,.769.142.769.769q.005,7.808.005,15.616c0,1.21,0,2.42-.005,3.63,0,.421.028.454.443.454,2.212,0,4.425-.005,6.638.008.331,0,.4-.123.4-.422q-.011-5.769,0-11.54c0-2.4-.007-4.794.007-7.192,0-.345-.084-.443-.439-.431-.882.032-1.765.015-2.648.012-.411,0-.682-.18-.679-.429,0-.275.279-.475.684-.476q3.388,0,6.776,0c.487,0,.656.172.657.669,0,1.289,0,2.58,0,3.869v.36l.091.024.512-.939a8.441,8.441,0,0,1,5.216-4.175,7.062,7.062,0,0,1,2.165-.3,8.969,8.969,0,0,1,2.157.085,19.119,19.119,0,0,1,2.107.607,5.37,5.37,0,0,1,3.517,4.782c.059.61.062,1.227.063,1.841q.011,6.455.009,12.911c0,.544,0,.543.558.543.963,0,1.927.012,2.889,0,.26,0,.367.083.338.331s.127.571-.316.58c-.241,0-.482,0-.723,0-3.45,0-6.9,0-10.353-.008a.71.71,0,0,1-.517-.214c-.22-.321.021-.678.446-.684.848-.013,1.7-.008,2.544-.009.709,0,.708,0,.709-.709q0-7.534.011-15.068a5,5,0,0,0-.738-2.8,2.887,2.887,0,0,0-2.358-1.328A7.558,7.558,0,0,0,76.328,21.1a10.456,10.456,0,0,0-.906,4.524c.017,3.481.005,6.963.005,10.445,0,.473,0,.474.472.475.905,0,1.811,0,2.717,0a1.786,1.786,0,0,1,.376.023c.256.056.352.293.152.45a1.124,1.124,0,0,1-.644.23q-4.367.021-8.734.005c-.836,0-1.672-.057-2.507-.056-1.11,0-2.221.054-3.332.056q-5.039.013-10.078,0a4.892,4.892,0,0,1-2.563-.673,4.487,4.487,0,0,1-1.848-2.676l-.124-.39M49.2,24.845a6.529,6.529,0,0,1-2.4,1.337c-1.051.427-2.12.811-3.157,1.268a4.325,4.325,0,0,0-2.787,3.433,6.676,6.676,0,0,0,.224,3.083,2.806,2.806,0,0,0,2.481,2.075,8.8,8.8,0,0,0,2.052-.084,3.237,3.237,0,0,0,1.139-.448,4.654,4.654,0,0,0,2.214-3.535,20.261,20.261,0,0,0,.225-2.655c.035-1.469.01-2.941.01-4.475" transform="translate(-4.314 -1.751)" fill="#fff"/>
      <path id="Path_2" data-name="Path 2" d="M12.937,31.778a4.494,4.494,0,0,0-.224.4,5.214,5.214,0,0,1-3.955,3.074,10.378,10.378,0,0,1-5.206-.092A5.093,5.093,0,0,1,.9,33.542a3.864,3.864,0,0,1-.835-2.1,5.433,5.433,0,0,1,.355-3.019A4.869,4.869,0,0,1,3.139,25.93c1.4-.55,2.861-.97,4.289-1.461,1.192-.41,2.394-.8,3.558-1.274a3.026,3.026,0,0,0,1.941-2.8,15.643,15.643,0,0,0-.175-4.161,2.7,2.7,0,0,0-2.821-2.3,8.356,8.356,0,0,0-2.492.181A2.161,2.161,0,0,0,5.7,16.733q.126,1.036.244,2.072A1.672,1.672,0,0,1,4.423,20.7a5.3,5.3,0,0,1-1.337-.013,1.758,1.758,0,0,1-1.628-1.911A4.7,4.7,0,0,1,3.233,14.9a7.962,7.962,0,0,1,4.493-1.794,12.113,12.113,0,0,1,4.305.182A6.176,6.176,0,0,1,17.178,18.8a19.2,19.2,0,0,1,.118,2.013c.011,3.1,0,6.21,0,9.315,0,.855.017,1.711.006,2.566a1.81,1.81,0,0,0,1.942,1.915c.616-.041,1.237-.008,1.856-.011.418,0,.437-.023.439-.455s0-.867,0-1.3V1.472c0-.554,0-.554-.568-.554-.952,0-1.9,0-2.855,0-.406,0-.43-.033-.428-.466S17.708,0,18.133,0H25.46c.524,0,.525,0,.525.534q0,16.746,0,33.491c0,.883-.116.761.761.768.848.007,1.7,0,2.545.006.19,0,.435-.025.447.25s-.177.406-.43.45a1.354,1.354,0,0,1-.24.009c-3.474,0-6.948.007-10.422-.006a18.817,18.817,0,0,1-2.149-.127,3.839,3.839,0,0,1-3.277-2.752c-.091-.243-.167-.493-.286-.846M7.908,34.322a4.215,4.215,0,0,0,4.446-3.15,11.753,11.753,0,0,0,.439-2.721c.085-1.6.063-3.213.081-4.82a1.448,1.448,0,0,0-.071-.321,2.144,2.144,0,0,0-.337.108c-.548.278-1.078.6-1.642.843-1.22.521-2.472.97-3.684,1.508a4.4,4.4,0,0,0-2.655,3.27,7.143,7.143,0,0,0,.1,2.782,2.9,2.9,0,0,0,1.275,1.987,3.3,3.3,0,0,0,2.045.513" transform="translate(0 0)" fill="#fff"/>
      <path id="Path_3" data-name="Path 3" d="M111.843,26.711c.175.157.27.234.356.32q11.5,11.45,23,22.9a.48.48,0,0,1,.1.1c.072.132.137.269.2.4a2.013,2.013,0,0,1-.417.089q-11.329.007-22.658,0c-.538,0-.613-.071-.613-.615q0-11.382,0-22.766c0-.108.019-.216.039-.434" transform="translate(-13.268 -3.17)" fill="#fff"/>
      <path id="Path_4" data-name="Path 4" d="M284.226,21.5a13.621,13.621,0,0,1-1.057,1.264,3.556,3.556,0,0,1-2.236.949,9.9,9.9,0,0,1-2.291-.014c-1.233-.2-2.452-.611-2.878-1.957a3.274,3.274,0,0,1,1.793-4.319,21.839,21.839,0,0,1,2.321-.837c.91-.313,1.826-.606,2.736-.922a2.135,2.135,0,0,0,1.581-2.026,19.065,19.065,0,0,0-.137-2.689,1.652,1.652,0,0,0-1.62-1.5,4.193,4.193,0,0,0-2.1.174,1.3,1.3,0,0,0-.931,1.543c.063.5.116,1,.167,1.495a1.1,1.1,0,0,1-.725,1.155,2.249,2.249,0,0,1-1.585-.026,1.25,1.25,0,0,1-.722-1.359,3.246,3.246,0,0,1,1.328-2.557,5.527,5.527,0,0,1,2.724-1.05,7.475,7.475,0,0,1,3.886.39,3.935,3.935,0,0,1,2.575,3.357,9.413,9.413,0,0,1,.071,1.159c.007,2.613,0,5.227.008,7.841a2.233,2.233,0,0,0,.088.708,1.087,1.087,0,0,0,1.012.837c.457.021.915.038,1.372.056.231.01.339-.1.331-.33,0-.079,0-.16,0-.24q0-10.631,0-21.265c0-.091-.005-.182,0-.273.012-.251-.113-.35-.355-.343-.263.007-.528,0-.791,0s-.55,0-.825-.006C287.643.7,287.33.485,287.377.3c.072-.286.333-.277.56-.278,1.536-.006,3.072,0,4.608-.011.262,0,.387.092.368.36-.01.147,0,.3,0,.445V22.421c0,.137,0,.274,0,.412.01.4.07.463.461.468.573.007,1.147,0,1.719.015a1,1,0,0,1,.334.149,1.391,1.391,0,0,1-.3.286.869.869,0,0,1-.371.037q-3.646,0-7.291,0a5.8,5.8,0,0,1-.956-.09,2.446,2.446,0,0,1-1.9-1.416c-.13-.275-.266-.549-.381-.785m-.143-5.838c-.353.181-.678.37-1.021.516-.748.317-1.506.61-2.261.915a3.069,3.069,0,0,0-2.23,2.6,6.424,6.424,0,0,0,.085,1.563,1.868,1.868,0,0,0,1.7,1.67,2.789,2.789,0,0,0,3.391-1.983,8.228,8.228,0,0,0,.364-2.213c.063-.974.026-1.956.03-2.934,0-.03-.026-.061-.062-.138" transform="translate(-32.699 -0.001)" fill="#fff"/>
      <path id="Path_5" data-name="Path 5" d="M153.2,21.288a12.142,12.142,0,0,1-.851,1.345,3.963,3.963,0,0,1-3,1.515,7.009,7.009,0,0,1-6.57-3.843,7.3,7.3,0,0,1,.791-8.558,6.621,6.621,0,0,1,5.373-2.533,4.39,4.39,0,0,1,3.874,2.2l.192.316h.074a2.871,2.871,0,0,0,.038-.334q0-5.086.006-10.17c0-.33-.12-.444-.445-.434-.549.018-1.1,0-1.65,0-.223,0-.379-.059-.385-.323-.006-.282.169-.306.384-.306,1.628,0,3.255-.014,4.883-.007.084,0,.2.131.241.227a1.091,1.091,0,0,1,.011.373V22.466c0,.575,0,.576.586.578.516,0,1.031.006,1.547,0,.25,0,.349.1.347.346s-.085.358-.34.357c-1.525-.006-3.049,0-4.573-.01-.377,0-.521-.151-.527-.527-.011-.649,0-1.3,0-1.92m-.06-5.061c-.036-.569-.05-1.541-.169-2.5-.271-2.181-1.632-3.938-4.219-3.9a3.232,3.232,0,0,0-2.971,2,8.652,8.652,0,0,0-.547,3.387c-.045,1.114-.035,2.232,0,3.346a8.439,8.439,0,0,0,.451,2.893,3.027,3.027,0,0,0,1.188,1.583,4.481,4.481,0,0,0,2.994.442,2.835,2.835,0,0,0,1-.345,3.97,3.97,0,0,0,1.917-2.6,17.791,17.791,0,0,0,.36-4.3" transform="translate(-16.821 -0.019)" fill="#fff"/>
      <path id="Path_6" data-name="Path 6" d="M229.4,17.026v6.2c0,.5,0,.5.52.506.539,0,1.077.006,1.616,0,.251,0,.345.1.344.348s-.091.355-.344.354q-3.643-.007-7.29,0c-.26,0-.368-.115-.368-.376s.139-.324.369-.323c.584.006,1.17-.007,1.755.005.27.005.357-.1.357-.365q-.008-6.027,0-12.054c0-.283-.114-.381-.391-.38q-3.043.009-6.087,0c-.278,0-.388.1-.388.382,0,3.641-.005,7.282.018,10.923a2.844,2.844,0,0,0,.3,1.147,1.9,1.9,0,0,0,2.494.659,2.778,2.778,0,0,0,1.373-1.513c.1-.23.153-.478.228-.717a.354.354,0,0,1,.486-.251c.232.066.186.251.143.424a3.546,3.546,0,0,1-1.531,2.311,3.387,3.387,0,0,1-1.267.477,6.356,6.356,0,0,1-3.316-.313,2.99,2.99,0,0,1-1.892-2.678c-.051-.509-.072-1.023-.074-1.536q-.009-4.417,0-8.834c0-.475,0-.475-.48-.476-.549,0-1.1,0-1.651,0-.218,0-.344-.07-.345-.315s.122-.313.344-.31c.574,0,1.146-.013,1.719,0,.309.009.425-.093.42-.412-.015-1.084-.006-2.168-.005-3.253,0-.456.087-.515.539-.394a2.676,2.676,0,0,0,2.092-.213c.313-.177.41-.121.412.239,0,1.107,0,2.214,0,3.322,0,.741-.1.711.7.711q4.3,0,8.6-.007c.613,0,.613,0,.613.626v6.1" transform="translate(-25.393 -0.705)" fill="#fff"/>
      <path id="Path_7" data-name="Path 7" d="M259.1,14.052c.072-.114.154-.222.215-.341a5.869,5.869,0,0,1,6.235-3.152,5.075,5.075,0,0,1,2.7,1.082,3.451,3.451,0,0,1,1.274,2.631c.06,2.5.061,5,.082,7.495.006.7.012,1.392,0,2.088-.007.306.086.433.41.421.561-.02,1.124,0,1.685-.008.241,0,.39.048.392.337s-.134.369-.4.368q-3.593-.008-7.187,0c-.249,0-.417-.041-.42-.351s.159-.356.412-.352c.561.008,1.123-.007,1.684.006.274.006.39-.08.389-.37-.007-3.413,0-6.826-.011-10.238a2.73,2.73,0,0,0-.554-1.7,2.214,2.214,0,0,0-2.147-.811A5.015,5.015,0,0,0,259.61,14.5a6.438,6.438,0,0,0-.47,2.606c.026,2.18.009,4.36.009,6.539,0,.621,0,.623.607.625.5,0,1.008.005,1.512,0,.24,0,.36.074.36.333s-.094.372-.362.371q-3.629-.008-7.257,0c-.246,0-.382-.069-.387-.348-.005-.308.153-.359.409-.355.562.01,1.125-.01,1.685.008.308.01.392-.113.391-.4Q256.1,17.9,256.1,11.922c0-.413-.032-.442-.457-.443-.55,0-1.1-.006-1.65,0-.23,0-.372-.06-.369-.327s.144-.3.356-.3c1.57,0,3.14,0,4.711-.01.285,0,.391.108.382.384-.026.775-.041,1.549-.057,2.325,0,.158,0,.316,0,.473Z" transform="translate(-30.098 -1.245)" fill="#fff"/>
      <path id="Path_8" data-name="Path 8" d="M173.665,21.948c-.2.336-.359.607-.517.88a4.794,4.794,0,0,1-3.66,2.554,5.546,5.546,0,0,1-4.734-1.325,3.728,3.728,0,0,1-.991-2.315,8.516,8.516,0,0,1-.08-1.227q-.009-4.229,0-8.458c0-.527-.007-.531-.541-.532s-1.078,0-1.616,0c-.227,0-.382-.064-.379-.326s.157-.3.366-.3c1.593,0,3.187,0,4.78-.011.367,0,.367.21.367.469,0,2.888-.014,5.775,0,8.663.005.876.052,1.756.141,2.627a2.352,2.352,0,0,0,1.311,1.936,2.649,2.649,0,0,0,2.361-.015,5.381,5.381,0,0,0,2.589-2.814,5.981,5.981,0,0,0,.529-2.557c-.009-2.386,0-4.772,0-7.157,0-.5-.011-.514-.524-.515l-1.513,0c-.228,0-.443.007-.441-.323s.208-.3.422-.3q2.3,0,4.608-.006c.486,0,.491,0,.491.505q0,6.182,0,12.362c0,.554,0,.555.571.557.516,0,1.032.006,1.548,0,.239,0,.36.072.361.332s-.093.373-.361.371c-1.513-.007-3.027,0-4.541-.01-.393,0-.536-.151-.54-.549-.009-.806,0-1.613,0-2.512" transform="translate(-19.123 -1.292)" fill="#fff"/>
      <path id="Path_9" data-name="Path 9" d="M207.154,23.055a8.635,8.635,0,0,1-.687,1.018,4.113,4.113,0,0,1-2.978,1.287,15.2,15.2,0,0,1-1.92-.067,3.871,3.871,0,0,1-2.013-.816,2.76,2.76,0,0,1-.98-2.31,3,3,0,0,1,1.224-2.654,7.736,7.736,0,0,1,2.293-1.066c1.2-.385,2.4-.769,3.587-1.182a2,2,0,0,0,1.447-1.926c.032-.772.011-1.547-.014-2.32a1.852,1.852,0,0,0-.594-1.383,3.026,3.026,0,0,0-1.333-.547,3.51,3.51,0,0,0-1.925.21,1.188,1.188,0,0,0-.864,1.251c.023.6.113,1.2.133,1.8a1.019,1.019,0,0,1-.985,1.172,4.468,4.468,0,0,1-1.224-.056.875.875,0,0,1-.69-.728,3.132,3.132,0,0,1,1.155-3.137,6.218,6.218,0,0,1,3.558-1.177,7.473,7.473,0,0,1,2.716.326,3.966,3.966,0,0,1,2.962,3.885c.063,2.794.052,5.589.073,8.384,0,.069,0,.137,0,.205-.025,1.18.321,1.461,1.623,1.24a2.832,2.832,0,0,0,.7-.282c.2-.093.367-.033.424.142a.431.431,0,0,1-.112.391,4.307,4.307,0,0,1-3.887.392,2.378,2.378,0,0,1-1.379-1.4c-.089-.207-.19-.409-.3-.657m-.07-5.8a8.835,8.835,0,0,1-.839.47c-.927.392-1.869.751-2.795,1.147a2.944,2.944,0,0,0-1.316.954,3.787,3.787,0,0,0-.286,3.69,1.06,1.06,0,0,0,.231.336,2.908,2.908,0,0,0,2.907.557,3.032,3.032,0,0,0,1.928-2.51,21.26,21.26,0,0,0,.21-4.127c0-.166-.026-.33-.041-.517" transform="translate(-23.565 -1.236)" fill="#fff"/>
      <path id="Path_10" data-name="Path 10" d="M243.253,25.388a7.752,7.752,0,0,1-5.166-1.86,7.443,7.443,0,0,1-2.483-3.664,6.612,6.612,0,0,1,1.548-6.584,8.381,8.381,0,0,1,3.359-2.371,6.81,6.81,0,0,1,5.928.458A8.221,8.221,0,0,1,249.8,14.7a6.452,6.452,0,0,1,.34,5.744,7.956,7.956,0,0,1-4.123,4.262,5.937,5.937,0,0,1-2.766.681m3.936-7.427a12.855,12.855,0,0,0-.42-4.136,3.557,3.557,0,0,0-1.234-2.01,4.614,4.614,0,0,0-4.2-.5,2.775,2.775,0,0,0-1.573,1.251,5.6,5.6,0,0,0-.863,2.61c-.109,1.453-.163,2.915-.13,4.371a8.2,8.2,0,0,0,.759,3.316,2.9,2.9,0,0,0,1.926,1.719,7.389,7.389,0,0,0,2.424.142,2.8,2.8,0,0,0,1.583-.6,4.227,4.227,0,0,0,1.31-2.126,11.959,11.959,0,0,0,.422-4.029" transform="translate(-27.923 -1.238)" fill="#fff"/>
      <path id="Path_11" data-name="Path 11" d="M132.956,16.881q-2.253,0-4.506,0c-.464,0-.471.005-.47.451a21.407,21.407,0,0,0,.209,4.127,4.763,4.763,0,0,0,.934,2.039,3.071,3.071,0,0,0,2.1,1.184,5.884,5.884,0,0,0,3.521-.455,4.242,4.242,0,0,0,2.043-2.3,1.556,1.556,0,0,1,.262-.549c.115-.112.34-.113.517-.163a1.171,1.171,0,0,1,.045.433,5.3,5.3,0,0,1-4.988,3.729,9.107,9.107,0,0,1-3.612-.536,6.76,6.76,0,0,1-4.333-5.147,7.7,7.7,0,0,1,5.939-9.137,6,6,0,0,1,7.256,4.913c.051.326.069.657.107.985.041.354-.011.424-.382.425-1.157,0-2.315,0-3.473,0h-1.17Zm-1.378-.628v0c.858,0,1.717-.008,2.575,0a.33.33,0,0,0,.385-.368c.009-.627.035-1.256-.007-1.88a5.833,5.833,0,0,0-.256-1.37,1.957,1.957,0,0,0-1.086-1.3,3.748,3.748,0,0,0-2.59-.135,3.261,3.261,0,0,0-2.165,2.466,21.44,21.44,0,0,0-.4,2.288c-.042.24.063.3.28.3,1.088-.005,2.176,0,3.264,0" transform="translate(-14.776 -1.237)" fill="#fff"/>
      <path id="Path_12" data-name="Path 12" d="M185.772,17.821c.1,1.083.158,2.318.355,3.529a3.856,3.856,0,0,0,1.727,2.841,3.485,3.485,0,0,0,1.4.509,7.558,7.558,0,0,0,2.153-.052,4.149,4.149,0,0,0,3.265-2.683,3.161,3.161,0,0,1,.316-.641c.125-.182.347-.286.528-.11.077.073.051.306,0,.441a5.528,5.528,0,0,1-1.164,2.035,5.308,5.308,0,0,1-3.521,1.663,8.432,8.432,0,0,1-5.327-1.244,6.474,6.474,0,0,1-2.967-4.534,7.55,7.55,0,0,1,1.905-6.72,7.415,7.415,0,0,1,4.573-2.354,7.075,7.075,0,0,1,4.557.787,3.4,3.4,0,0,1,1.855,2.64,1.7,1.7,0,0,1-1.794,1.906,3.524,3.524,0,0,1-.933-.2.966.966,0,0,1-.653-1.229c.11-.524.255-1.042.39-1.561a1.1,1.1,0,0,0-.49-1.251c-1.269-.9-3.806-.653-4.7.478a6.309,6.309,0,0,0-1.142,2.614,6.27,6.27,0,0,0-.135.74c-.07.748-.122,1.5-.194,2.4" transform="translate(-21.645 -1.236)" fill="#fff"/>
    </g>
  </g>
</svg>
