<svg width="800" height="800" viewBox="0 0 800 800" fill="none" xmlns="http://www.w3.org/2000/svg">
<path d="M177.417 117.646C79.5907 117.646 0.0131836 197.223 0.0131836 295.051C0.0131836 389.423 74.0732 466.827 167.127 472.174C168.738 489.569 167.529 536.921 122.156 602.789C118.726 607.758 119.348 614.459 123.608 618.719C142.176 637.287 153.651 648.981 161.682 657.159C172.193 667.853 176.991 672.736 184.009 679.108C186.389 681.268 189.392 682.354 192.408 682.354C195.337 682.354 198.254 681.329 200.611 679.291C279.676 610.492 367.506 468.341 354.798 294.147C347.352 191.877 272.754 117.646 177.417 117.646ZM192.529 652.777C189.124 649.421 185.242 645.466 179.517 639.642C172.559 632.551 163.013 622.833 148.536 608.307C203.602 523.456 193.201 463.019 188.648 454.352C186.487 450.238 182.056 447.467 177.417 447.467C93.3844 447.467 25.0132 379.096 25.0132 295.051C25.0132 211.017 93.3844 142.646 177.417 142.646C259.278 142.646 323.389 207.123 329.871 295.953C344.153 491.877 227.711 619.086 192.529 652.777Z" fill="white"/>
<path d="M798.756 294.147C791.284 191.889 716.676 117.646 621.363 117.646C523.536 117.646 443.946 197.223 443.946 295.051C443.946 389.423 518.018 466.827 611.084 472.174C612.696 489.557 611.474 536.883 566.089 602.789C562.659 607.758 563.282 614.459 567.542 618.719C586.036 637.213 597.486 648.883 605.518 657.049C616.077 667.816 620.899 672.723 627.954 679.119C630.334 681.268 633.349 682.354 636.353 682.354C639.283 682.354 642.201 681.329 644.556 679.278C723.621 610.479 811.451 468.329 798.756 294.147ZM636.474 652.777C633.044 649.396 629.127 645.417 623.352 639.533C616.394 632.452 606.886 622.761 592.468 608.307C647.534 523.443 637.147 463.019 632.606 454.352C630.444 450.251 626.002 447.467 621.363 447.467C537.317 447.467 468.946 379.096 468.946 295.051C468.946 211.017 537.317 142.646 621.363 142.646C703.211 142.646 767.334 207.123 773.828 295.966C788.098 491.864 671.656 619.086 636.474 652.777Z" fill="white"/>
</svg>
