<svg width="800" height="800" viewBox="0 0 800 800" fill="none" xmlns="http://www.w3.org/2000/svg">
<path d="M632.866 327.821C631.255 310.402 632.487 263.051 677.848 197.206C681.28 192.237 680.657 185.536 676.396 181.276C657.902 162.782 646.452 151.112 638.421 142.946C627.861 132.178 623.04 127.272 615.983 120.875C611.272 116.64 604.143 116.566 599.382 120.717C520.317 189.516 432.5 331.678 445.207 505.848C452.653 608.118 527.251 682.35 622.576 682.35C720.402 682.35 799.992 602.772 799.992 504.945C799.992 410.572 725.921 333.18 632.866 327.821ZM622.576 657.35C540.714 657.35 476.616 592.872 470.134 504.042C455.84 308.156 572.282 180.91 607.463 147.218C610.893 150.6 614.812 154.578 620.586 160.462C627.543 167.542 637.066 177.235 651.47 191.688C596.403 276.527 606.792 336.976 611.345 345.643C613.506 349.757 617.937 352.528 622.576 352.528C706.621 352.528 774.992 420.9 774.992 504.945C774.992 588.978 706.621 657.35 622.576 657.35Z" fill="white"/>
<path d="M188.921 327.821C187.297 310.451 188.493 263.136 233.903 197.206C237.322 192.237 236.711 185.536 232.451 181.276C213.993 162.818 202.556 151.161 194.536 142.994C183.941 132.203 179.106 127.283 172.051 120.874C167.338 116.639 160.209 116.578 155.449 120.704C76.3845 189.503 -11.4455 331.642 1.23696 505.848C8.70821 608.106 83.317 682.349 178.642 682.349C276.469 682.349 356.059 602.772 356.059 504.944C356.059 410.561 281.987 333.156 188.921 327.821ZM178.642 657.349C96.7945 657.349 32.6582 592.872 26.1645 504.029C11.907 308.094 128.349 180.897 163.529 147.218C166.972 150.599 170.903 154.603 176.689 160.499C183.634 167.579 193.144 177.259 207.524 191.688C152.458 276.539 162.847 336.976 167.399 345.631C169.561 349.744 174.003 352.528 178.642 352.528C262.688 352.528 331.059 420.899 331.059 504.944C331.059 588.978 262.688 657.349 178.642 657.349Z" fill="white"/>
</svg>
