<svg xmlns="http://www.w3.org/2000/svg" width="24.188" height="24.193" viewBox="0 0 24.188 24.193">
  <g id="instagram" transform="translate(-0.449)">
    <path id="Path_78" data-name="Path 78" d="M24.576,7.113a8.84,8.84,0,0,0-.562-2.935,6.2,6.2,0,0,0-3.54-3.54A8.863,8.863,0,0,0,17.539.076C16.244.014,15.833,0,12.548,0s-3.7.014-4.986.071A8.843,8.843,0,0,0,4.627.633a5.9,5.9,0,0,0-2.146,1.4A5.956,5.956,0,0,0,1.087,4.173,8.864,8.864,0,0,0,.525,7.108C.463,8.4.449,8.814.449,12.1s.014,3.7.071,4.986a8.84,8.84,0,0,0,.563,2.935,6.2,6.2,0,0,0,3.54,3.54,8.864,8.864,0,0,0,2.935.562c1.29.057,1.7.071,4.986.071s3.7-.014,4.986-.071a8.838,8.838,0,0,0,2.935-.562A6.188,6.188,0,0,0,24,20.02a8.87,8.87,0,0,0,.562-2.935c.057-1.29.071-1.7.071-4.986S24.633,8.4,24.576,7.113ZM22.4,16.99a6.631,6.631,0,0,1-.416,2.245,4.013,4.013,0,0,1-2.3,2.3,6.655,6.655,0,0,1-2.245.416c-1.276.057-1.659.071-4.887.071S8.937,22,7.666,21.948a6.628,6.628,0,0,1-2.245-.416,3.723,3.723,0,0,1-1.389-.9,3.761,3.761,0,0,1-.9-1.389A6.656,6.656,0,0,1,2.713,17c-.057-1.276-.071-1.659-.071-4.887s.014-3.615.071-4.887a6.628,6.628,0,0,1,.416-2.245,3.677,3.677,0,0,1,.908-1.39,3.756,3.756,0,0,1,1.389-.9,6.659,6.659,0,0,1,2.245-.416C8.947,2.212,9.33,2.2,12.557,2.2s3.615.014,4.887.071a6.631,6.631,0,0,1,2.245.416,3.72,3.72,0,0,1,1.389.9,3.76,3.76,0,0,1,.9,1.39A6.658,6.658,0,0,1,22.4,7.222c.057,1.276.071,1.659.071,4.887S22.454,15.714,22.4,16.99Zm0,0" fill="#fff"/>
    <path id="Path_79" data-name="Path 79" d="M131.164,124.5a6.215,6.215,0,1,0,6.215,6.215A6.216,6.216,0,0,0,131.164,124.5Zm0,10.246a4.031,4.031,0,1,1,4.031-4.031A4.032,4.032,0,0,1,131.164,134.746Zm0,0" transform="translate(-118.616 -118.616)" fill="#fff"/>
    <path id="Path_80" data-name="Path 80" d="M365.351,90.052A1.451,1.451,0,1,1,363.9,88.6,1.451,1.451,0,0,1,365.351,90.052Zm0,0" transform="translate(-344.892 -84.414)" fill="#fff"/>
  </g>
</svg>
