<svg id="linkedin-logo" xmlns="http://www.w3.org/2000/svg" width="27.76" height="26.527" viewBox="0 0 27.76 26.527">
  <path id="LinkedIn" d="M27.76,25.821V36.085H21.81V26.509c0-2.406-.861-4.047-3.014-4.047a3.256,3.256,0,0,0-3.053,2.177,4.071,4.071,0,0,0-.2,1.451v10H9.594s.08-16.218,0-17.9h5.951v2.537c-.012.019-.028.039-.039.058h.039v-.058a5.909,5.909,0,0,1,5.364-2.958C24.825,17.765,27.76,20.324,27.76,25.821ZM3.368,9.558a3.1,3.1,0,1,0-.079,6.186h.04a3.1,3.1,0,1,0,.039-6.186ZM.353,36.085H6.3v-17.9H.353Z" transform="translate(0 -9.558)" fill="#bc8a8d"/>
</svg>
