<svg id="Group_29" data-name="Group 29" xmlns="http://www.w3.org/2000/svg" width="25.864" height="21.009" viewBox="0 0 25.864 21.009">
  <path id="Path_47" data-name="Path 47" d="M25.865,59.927a10.6,10.6,0,0,1-3.047.836,5.328,5.328,0,0,0,2.332-2.933,10.7,10.7,0,0,1-3.371,1.288,5.31,5.31,0,0,0-9.041,4.837A15.063,15.063,0,0,1,1.8,58.411a5.312,5.312,0,0,0,1.642,7.082,5.306,5.306,0,0,1-2.4-.666v.066A5.311,5.311,0,0,0,5.3,70.1a5.374,5.374,0,0,1-1.4.186,5.093,5.093,0,0,1-1-.1,5.308,5.308,0,0,0,4.955,3.685,10.645,10.645,0,0,1-6.589,2.268A11.28,11.28,0,0,1,0,76.063,15,15,0,0,0,8.134,78.45a14.991,14.991,0,0,0,15.1-15.1l-.018-.687A10.6,10.6,0,0,0,25.865,59.927Z" transform="translate(-0.001 -57.441)" fill="#fff"/>
</svg>
